# xmcd CD database file
#
# Track frame offsets:
#	150
#	11995
#	23032
#	34408
#	50078
#	59341
#	69954
#	81271
#	92669
#	111633
#	123936
#	134459
#	144539
#	155928
#	169078
#	181311
#	191377
#	200776
#
# Disc length: 2862 seconds
#
# Revision: 0
# Processed by: cddbd v1.5.1PL0 Copyright (c) Steve Scherf et al.
# Submitted via: CDex 1.51
#
DISCID=0f0b2c12
DTITLE=Various Artist - Remember Then Vol 2 PBXCD 352 - 2
DYEAR=2002
DGENRE=DooWop
TTITLE0=El Dorados - At My Front Door 1955
TTITLE1=Pentagons - To Be Loved (Forever) 1961
TTITLE2=Jimmy Charles - A Million To One 1960
TTITLE3=Little Caesar and the Romas - These Oldies But Goodies (Remind Me of You) 1961
TTITLE4=Crests - the Angels Listened In 1959
TTITLE5=Richard Barrett and the Sevilles - Dream On 1960
TTITLE6=Duprees - Have You Heard 1963
TTITLE7=Skyliners - This I Swear 1959
TTITLE8=Earls - I Believe  1963
TTITLE9=Lewis Lymon and the Teenchords - I'm So Happy 1956
TTITLE10=Fiestas - So Fine 1962
TTITLE11=Don and Juan - What's Your Name 1962
TTITLE12=Desires - I Ask You 1962
TTITLE13=Cathy Jean and The Roommates - Please Love Me Forever 1961
TTITLE14=Belmonts - Tell Me Why 1961
TTITLE15=Castells - Sacred 1961
TTITLE16=Skip and Flip - Cherry Pie 1960
TTITLE17=Dells - Oh What A Good Night 1964 
EXTD=YEAR: 2002
EXTT0=
EXTT1=
EXTT2=
EXTT3=
EXTT4=
EXTT5=
EXTT6=
EXTT7=
EXTT8=
EXTT9=
EXTT10=
EXTT11=
EXTT12=
EXTT13=
EXTT14=
EXTT15=
EXTT16=
EXTT17=
PLAYORDER=
